<svg width="32" height="32" viewBox="0 0 32 32" fill="none" xmlns="http://www.w3.org/2000/svg">
<path d="M23 17.3334C23 18.2534 22.2534 19.0001 21.3334 19.0001C20.4134 19.0001 19.6667 18.2534 19.6667 17.3334C19.6667 16.4134 20.4134 15.6667 21.3334 15.6667C22.2534 15.6667 23 16.4134 23 17.3334ZM29.3334 16.0001C29.3334 23.3334 23.3334 29.3334 16 29.3334H2.66669V16.0001C2.66669 8.66675 8.66669 2.66675 16 2.66675C23.3334 2.66675 29.3334 8.66675 29.3334 16.0001ZM9.33335 24.0001C11.2134 25.6401 13.3334 26.6667 16 26.6667C21.88 26.6667 26.6667 21.8801 26.6667 16.0001C26.6667 14.9467 26.5067 13.9334 26.2267 12.9867C25.2667 13.2134 24.2667 13.3334 23.2267 13.3334C20.56 13.3334 18.0934 12.5334 16 11.1867C16 11.1867 14.0534 18.3467 10.7067 17.3334C9.82669 17.0667 9.33335 17.7467 9.33335 18.6667" fill="black"/>
</svg>
