<svg width="122" height="122" viewBox="0 0 122 122" fill="none" xmlns="http://www.w3.org/2000/svg">
<path d="M60.9554 0.159241C52.9715 0.159241 45.0658 1.73178 37.6897 4.78708C30.3135 7.84237 23.6114 12.3206 17.966 17.966C6.56448 29.3675 0.15918 44.8313 0.15918 60.9554C0.15918 77.0796 6.56448 92.5434 17.966 103.945C23.6114 109.59 30.3135 114.069 37.6897 117.124C45.0658 120.179 52.9715 121.752 60.9554 121.752C77.0795 121.752 92.5433 115.346 103.945 103.945C115.346 92.5434 121.752 77.0796 121.752 60.9554C121.752 52.9716 120.179 45.0659 117.124 37.6897C114.068 30.3136 109.59 23.6115 103.945 17.966C98.2993 12.3206 91.5972 7.84237 84.2211 4.78708C76.845 1.73178 68.9393 0.159241 60.9554 0.159241ZM60.9554 39.008C70.7646 45.3822 82.2087 48.7816 93.9069 48.7962C98.649 48.7962 103.209 48.249 107.586 47.2155C108.863 51.532 109.592 56.1525 109.592 60.9554C109.592 87.7666 87.7665 109.592 60.9554 109.592C42.7165 109.592 26.8487 99.5002 18.398 84.6052L29.0374 73.1147V67.0351C29.0374 65.0195 29.838 63.0866 31.2632 61.6614C32.6884 60.2362 34.6214 59.4355 36.6369 59.4355C38.6524 59.4355 40.5854 60.2362 42.0106 61.6614C43.4358 63.0866 44.2364 65.0195 44.2364 67.0351V73.1147H60.9554M85.2739 59.4355C83.2583 59.4355 81.3254 60.2362 79.9002 61.6614C78.475 63.0866 77.6743 65.0195 77.6743 67.0351C77.6743 69.0506 78.475 70.9836 79.9002 72.4087C81.3254 73.8339 83.2583 74.6346 85.2739 74.6346C87.2894 74.6346 89.2224 73.8339 90.6475 72.4087C92.0727 70.9836 92.8734 69.0506 92.8734 67.0351C92.8734 65.0195 92.0727 63.0866 90.6475 61.6614C89.2224 60.2362 87.2894 59.4355 85.2739 59.4355Z" fill="black"/>
</svg>
