<svg width="32" height="32" viewBox="0 0 32 32" fill="none" xmlns="http://www.w3.org/2000/svg">
<path d="M16 2.66675C14.2491 2.66675 12.5152 3.01162 10.8976 3.68169C9.2799 4.35175 7.81004 5.33388 6.57193 6.57199C4.07144 9.07248 2.66669 12.4639 2.66669 16.0001C2.66669 19.5363 4.07144 22.9277 6.57193 25.4282C7.81004 26.6663 9.2799 27.6484 10.8976 28.3185C12.5152 28.9885 14.2491 29.3334 16 29.3334C19.5362 29.3334 22.9276 27.9287 25.4281 25.4282C27.9286 22.9277 29.3334 19.5363 29.3334 16.0001C29.3334 14.2491 28.9885 12.5153 28.3184 10.8976C27.6484 9.27996 26.6662 7.81011 25.4281 6.57199C24.19 5.33388 22.7201 4.35175 21.1025 3.68169C19.4848 3.01162 17.751 2.66675 16 2.66675ZM16 11.1867C18.1513 12.5847 20.6611 13.3302 23.2267 13.3334C24.2667 13.3334 25.2667 13.2134 26.2267 12.9867C26.5067 13.9334 26.6667 14.9467 26.6667 16.0001C26.6667 21.8801 21.88 26.6667 16 26.6667C12 26.6667 8.52002 24.4534 6.66669 21.1867L9.00002 18.6667V17.3334C9.00002 16.8914 9.17561 16.4675 9.48818 16.1549C9.80074 15.8423 10.2247 15.6667 10.6667 15.6667C11.1087 15.6667 11.5326 15.8423 11.8452 16.1549C12.1578 16.4675 12.3334 16.8914 12.3334 17.3334V18.6667H16M21.3334 15.6667C20.8913 15.6667 20.4674 15.8423 20.1548 16.1549C19.8423 16.4675 19.6667 16.8914 19.6667 17.3334C19.6667 17.7754 19.8423 18.1994 20.1548 18.5119C20.4674 18.8245 20.8913 19.0001 21.3334 19.0001C21.7754 19.0001 22.1993 18.8245 22.5119 18.5119C22.8244 18.1994 23 17.7754 23 17.3334C23 16.8914 22.8244 16.4675 22.5119 16.1549C22.1993 15.8423 21.7754 15.6667 21.3334 15.6667Z" fill="black"/>
</svg>
